<svg width="160" height="46" viewBox="0 0 160 46" fill="none" xmlns="http://www.w3.org/2000/svg">
<g clip-path="url(#clip0_1_55)">
<path d="M46.3097 23C46.3097 10.2966 35.9437 0 23.1548 0C10.366 0 0 10.2966 0 23C0 35.7034 10.366 46 23.1548 46C26.8652 46 30.3699 45.1315 33.4782 43.5914C34.8267 45.0708 36.7755 46 38.9409 46C43.0106 46 46.3078 42.723 46.3078 38.6823C46.3078 36.5295 45.3724 34.5938 43.8831 33.2562C45.4335 30.1686 46.3078 26.6874 46.3078 23.0018L46.3097 23Z" fill="#FE9836"/>
<path d="M31.4515 10.0299C29.0526 8.51002 26.2055 7.62866 23.1546 7.63234C18.883 7.63602 15.0153 9.35274 12.2144 12.1367C9.41363 14.9187 7.6835 18.7607 7.6798 23.0037C7.67609 26.0342 8.56339 28.8623 10.0935 31.2451L4.5752 36.7264C5.92003 38.5241 7.5279 40.1212 9.33768 41.4571L14.8559 35.9757C17.2529 37.4919 20.0945 38.3714 23.1491 38.3714C26.5075 38.3714 29.6158 37.306 32.1517 35.5028C32.8426 35.0115 33.491 34.4614 34.0893 33.8671C34.6876 33.2727 35.2415 32.6287 35.7361 31.9424C37.4829 29.521 38.5406 26.5733 38.6184 23.3846H32.5092C32.4147 25.8042 31.3867 27.9827 29.7769 29.5817C28.0839 31.2635 25.7406 32.3086 23.1528 32.3049C21.8005 32.3049 20.5131 32.0179 19.3535 31.5063L36.2121 14.7605C35.6045 13.8092 34.8895 12.9279 34.093 12.1348C33.2946 11.3418 32.4073 10.6334 31.4496 10.0299H31.4515ZM14.5929 26.7757C14.0742 25.622 13.7853 24.3414 13.7853 23C13.7853 20.4332 14.8337 18.1038 16.5268 16.4202C18.2199 14.7384 20.5669 13.697 23.1509 13.697C24.5032 13.697 25.7906 13.984 26.952 14.4992L14.5911 26.7775L14.5929 26.7757Z" fill="#FEFEFE"/>
<path d="M64.0057 18.1921V20.3817H53.4878V5.52002H63.8074V7.70962H55.9681V11.6987H62.0347V13.8111H55.9681V18.1921H64.0038H64.0057Z" fill="#1E1E1E"/>
<path d="M77.319 12.9518V20.3836H74.9553V13.5774C74.9553 11.5828 73.9698 10.4476 72.3564 10.4476C70.5059 10.4476 69.0092 11.7779 69.0092 13.6547V20.3817H66.6455V8.64804H68.6942L68.8517 10.4862C69.7575 9.235 71.2543 8.453 73.027 8.453C75.5481 8.453 77.3208 10.2525 77.3208 12.9518H77.319Z" fill="#1E1E1E"/>
<path d="M85.9844 18.584C87.7182 18.584 88.8204 17.9198 89.491 17.0587L91.1063 18.4663C90.1208 19.6402 88.4666 20.5786 85.9863 20.5786C82.087 20.5786 79.9604 17.9971 79.9604 14.5158C79.9604 11.0345 82.3241 8.453 85.7899 8.453C89.2557 8.453 91.5008 10.8395 91.5008 14.5158C91.5008 14.79 91.5008 14.985 91.4212 15.2592H82.3222C82.5982 17.2924 83.8986 18.584 85.9863 18.584H85.9844ZM82.3611 13.4596H89.0964C88.7815 11.5424 87.5608 10.4089 85.7881 10.4089C84.0153 10.4089 82.7149 11.5828 82.3611 13.4596Z" fill="#1E1E1E"/>
<path d="M101.504 8.57072V10.799C100.993 10.7603 100.44 10.7198 99.9274 10.7198C98.0361 10.7198 96.619 11.9324 96.619 13.8092V20.3798H94.2554V8.64616H96.3041L96.4616 10.523C97.3285 9.27176 98.8252 8.44928 100.598 8.44928C100.913 8.44928 101.189 8.48792 101.504 8.56704V8.57072Z" fill="#1E1E1E"/>
<path d="M113.713 8.64987L113.674 19.171C113.674 22.299 111.547 24.4904 107.922 24.4904C105.755 24.4904 104.18 23.8648 103.117 22.8087L104.377 21.1656C105.321 22.1444 106.385 22.4959 107.883 22.4959C110.523 22.4959 111.468 21.0092 111.468 19.1324V17.9989C110.523 19.1728 109.143 19.8757 107.45 19.8757C104.338 19.8757 102.289 17.607 102.289 14.1662C102.289 10.7254 104.416 8.45483 107.45 8.45483C109.184 8.45483 110.601 9.15955 111.507 10.3316L111.664 8.64987H113.713ZM111.507 14.203C111.507 11.9343 110.167 10.4476 108.08 10.4476C105.992 10.4476 104.692 11.9343 104.692 14.203C104.692 16.4717 106.031 17.9584 108.08 17.9584C110.128 17.9584 111.507 16.5104 111.507 14.203Z" fill="#1E1E1E"/>
<path d="M128.248 8.64984L123.876 20.8141C123.128 22.9264 121.828 24.4904 119.82 24.4904C117.456 24.4904 116.432 22.8473 116.432 21.0478L118.599 20.6963C118.56 21.5961 118.834 22.3781 119.859 22.3781C120.488 22.3781 120.961 21.9475 121.394 21.1655L115.841 8.64984H118.44L122.576 18.4662L125.807 8.64984H128.248Z" fill="#1E1E1E"/>
<path d="M53.4878 25.4214H55.97V40.2831H53.4878V25.4214Z" fill="#1E1E1E"/>
<path d="M70.7408 32.8532V40.285H68.3772V33.4788C68.3772 31.4843 67.3917 30.3508 65.7783 30.3508C63.9278 30.3508 62.431 31.6811 62.431 33.5579V40.285H60.0674V28.5513H62.1161L62.2736 30.3895C63.1794 29.1383 64.6761 28.3563 66.4489 28.3563C68.97 28.3563 70.7427 30.1558 70.7427 32.8532H70.7408Z" fill="#1E1E1E"/>
<path d="M84.408 28.5513L79.7603 40.2849H77.0021L72.3545 28.5513H74.9534L78.4192 37.8985L81.9258 28.5513H84.408Z" fill="#1E1E1E"/>
<path d="M91.4581 38.4855C93.1919 38.4855 94.294 37.8212 94.9646 36.9601L96.5799 38.3677C95.5944 39.5416 93.9402 40.48 91.4599 40.48C87.5606 40.48 85.4341 37.8985 85.4341 34.4172C85.4341 30.936 87.7977 28.3544 91.2635 28.3544C94.7294 28.3544 96.9745 30.7409 96.9745 34.4172C96.9745 34.6914 96.9745 34.8864 96.8948 35.1606H87.7959C88.0719 37.1938 89.3723 38.4855 91.4599 38.4855H91.4581ZM87.8348 33.3629H94.5701C94.2552 31.4456 93.0344 30.3122 91.2617 30.3122C89.489 30.3122 88.1886 31.4861 87.8348 33.3629Z" fill="#1E1E1E"/>
<path d="M98.4692 38.6805L99.7696 36.9988C100.755 37.9372 102.054 38.445 103.63 38.445C105.206 38.445 106.071 37.9758 106.071 37.076C106.071 36.3327 105.442 35.9021 103.274 35.3943C100.201 34.6123 98.9805 33.6334 98.9805 31.8357C98.9805 29.7234 100.831 28.3544 103.628 28.3544C105.282 28.3544 106.82 28.8623 108.118 29.8007L106.779 31.5615C105.834 30.7795 104.771 30.349 103.51 30.349C102.17 30.349 101.264 30.8568 101.264 31.6793C101.264 32.4227 101.894 32.8128 103.904 33.3224C107.135 34.1431 108.355 35.1219 108.355 36.9601C108.355 39.1111 106.505 40.48 103.55 40.48C101.542 40.48 99.7696 39.8544 98.4692 38.6805Z" fill="#1E1E1E"/>
<path d="M114.068 30.5458V36.7264C114.068 37.939 114.62 38.2904 115.761 38.2904C116.391 38.2904 116.904 38.2518 117.692 38.0549V40.2058C116.904 40.4009 116.076 40.48 115.289 40.48C112.964 40.48 111.705 39.3466 111.705 37.1938V30.544H109.38V28.5494H111.705L112.02 25.4214H114.068V28.5494H117.692V30.544H114.068V30.5458Z" fill="#1E1E1E"/>
<path d="M119.031 34.4172C119.031 30.8182 121.472 28.3544 125.018 28.3544C128.563 28.3544 131.005 30.7409 131.005 34.4172C131.005 38.0936 128.563 40.48 125.018 40.48C121.472 40.48 119.031 38.0936 119.031 34.4172ZM128.602 34.4172C128.602 31.9535 127.183 30.349 125.018 30.349C122.852 30.349 121.433 31.9535 121.433 34.4172C121.433 36.881 122.852 38.4855 125.018 38.4855C127.183 38.4855 128.602 36.8828 128.602 34.4172Z" fill="#1E1E1E"/>
<path d="M141.089 28.4722V30.7023C140.578 30.6636 140.026 30.6232 139.513 30.6232C137.622 30.6232 136.204 31.8357 136.204 33.7125V40.2832H133.841V28.5495H135.89L136.047 30.4263C136.914 29.1751 138.411 28.3526 140.183 28.3526C140.498 28.3526 140.774 28.3912 141.089 28.4704V28.4722Z" fill="#1E1E1E"/>
<path d="M141.954 38.6805L143.254 36.9988C144.24 37.9372 145.538 38.445 147.115 38.445C148.691 38.445 149.556 37.9758 149.556 37.076C149.556 36.3327 148.926 35.9021 146.759 35.3943C143.686 34.6123 142.465 33.6334 142.465 31.8357C142.465 29.7234 144.316 28.3544 147.113 28.3544C148.767 28.3544 150.305 28.8623 151.603 29.8007L150.264 31.5615C149.319 30.7795 148.254 30.349 146.994 30.349C145.655 30.349 144.749 30.8568 144.749 31.6793C144.749 32.4227 145.379 32.8128 147.389 33.3224C150.62 34.1431 151.84 35.1219 151.84 36.9601C151.84 39.1111 149.99 40.48 147.035 40.48C145.027 40.48 143.254 39.8544 141.954 38.6805Z" fill="#1E1E1E"/>
<path d="M155.551 27.2302H154.326V30.1282H153.746V27.2302H152.522V26.7076H155.549V27.2302H155.551Z" fill="#1E1E1E"/>
<path d="M160 30.1282H159.448V27.3572L158.396 30.1282H157.76L156.708 27.3572V30.1282H156.156V26.7076H157.036L158.088 29.4621L159.131 26.7076H160.002V30.1282H160Z" fill="#1E1E1E"/>
</g>
<defs>
<clipPath id="clip0_1_55">
<rect width="160" height="46" fill="white"/>
</clipPath>
</defs>
</svg>
